<svg width="35" height="35" viewBox="0 0 35 35" fill="none" xmlns="http://www.w3.org/2000/svg">
<path d="M0 14C0 6.26801 6.26802 0 14 0H20.5968C28.3288 0 34.5968 6.26801 34.5968 14V35H14C6.26802 35 0 28.732 0 21V14Z" fill="#00634B"/>
<path d="M4.2655 17.4207C4.2655 10.2192 10.1042 4.30957 17.2983 4.30957C24.4961 4.30957 30.3311 10.1445 30.3311 17.3423V30.6906H17.456C10.1748 30.6906 4.2655 24.7094 4.2655 17.4207Z" stroke="white"/>
<path d="M23.7879 17.8025C23.7879 18.0939 23.7479 18.5634 23.6679 19.2109H14.7623C14.8904 20.2147 15.2264 20.9513 15.7705 21.4208C16.3306 21.8903 17.2348 22.125 18.483 22.125C19.8912 22.125 21.3555 21.8822 22.8757 21.3965V23.8977C21.4195 24.4967 19.6992 24.7962 17.7148 24.7962C15.7465 24.7962 14.1782 24.2134 13.01 23.0478C11.8578 21.8822 11.2817 20.2309 11.2817 18.0939C11.2817 16.0379 11.8578 14.3785 13.01 13.1157C14.1622 11.8367 15.6745 11.1973 17.5468 11.1973C19.4031 11.1973 20.9074 11.8044 22.0596 13.0186C23.2118 14.2328 23.7879 15.8274 23.7879 17.8025ZM19.4671 14.6456C19.0031 14.0628 18.363 13.7714 17.5468 13.7714C16.7307 13.7714 16.0826 14.0628 15.6025 14.6456C15.1224 15.2122 14.8344 16.0055 14.7383 17.0254H20.3553C20.2433 16.0055 19.9472 15.2122 19.4671 14.6456Z" fill="white"/>
</svg>
